<svg xmlns="http://www.w3.org/2000/svg" width="510" height="400" fill="none" viewBox="0 0 510 400">
    <style>
        path {
            fill: #000;
        }
        @media (prefers-color-scheme: dark) {
            path {
            fill: #FFF;
            }
        }
    </style>
    <g transform="translate(-41.8,-138)">
        <path d="m 178.2,152 c -117.38,-0.1 -108.47,-0.2 -111.33,1.9 -1.76,1.3 -3.08,3.2 -3.74,5.4 -0.45,1.6 -0.51,3.5 -0.42,14.3 0.1,11.8 0.12,12.5 0.76,13.9 1.41,3 4.05,5.1 7.44,5.9 1.48,0.4 17.52,0.4 88.49,0.4 H 246 v 108.6 c 0,107.1 0,108.6 -0.6,112.9 -3.8,25.1 -15.2,45.1 -32.1,56.1 -12.4,8.1 -28.6,11.8 -47.3,10.7 -30.5,-1.6 -52.3,-13.7 -62.6,-34.7 -3.4,-6.9 -5.15,-13 -6.49,-22.2 -0.71,-5 -1.52,-7.4 -3.15,-9.5 -1.36,-1.8 -2.1,-2.5 -3.61,-3.3 -2.28,-1.2 -4.33,-1.3 -19.99,-1.2 l -15.04,0.1 -1.84,0.9 c -2.05,1 -3.68,2.8 -4.79,5.2 -0.63,1.4 -0.72,2 -0.68,5.4 0.1,8.9 2,20.9 4.64,29.3 13.2,41.8 51.05,67.1 106.55,71.1 3.5,0.3 21.4,0.2 25.1,-0.1 32.6,-2.5 57.8,-13.5 77.4,-33.6 7.4,-7.6 13.1,-15.5 18.2,-25.4 5.1,-9.5 8.2,-18.2 11.7,-32.1 l 0.8,-3.4 0.2,-92.7 0.2,-92.7 40.1,78 c 26.4,51.3 40.7,78.8 41.8,80.2 1.8,2.5 4.6,4.6 6.9,5.5 1.6,0.5 2.9,0.5 13.7,0.5 11.6,0 12.1,0 13.9,-0.7 2.4,-0.9 5,-2.8 6.6,-4.9 0.6,-1 19.5,-37.3 41.8,-80.7 l 40.6,-79 0.2,119.2 0.1,119.1 0.9,1.8 c 1,2.1 2.9,4.1 5,5.1 l 1.5,0.8 h 15.3 15.4 l 1.7,-0.8 c 2.2,-1 4.6,-3.6 5.4,-5.9 0.6,-1.6 0.6,-7.3 0.6,-161.3 V 160.4 l -0.9,-2 c -1.2,-2.4 -3.3,-4.5 -5.5,-5.4 -1.5,-0.6 -2.6,-0.6 -17.1,-0.6 H 505 l -1.6,0.7 c -1.8,0.9 -2.8,1.8 -4.9,4.4 -1.1,1.4 -17.1,31.6 -52.3,98.6 -28,53.1 -50.9,96.7 -51,96.9 -0.2,0.1 -23.2,-43.7 -51.3,-97.3 -47.1,-90 -51.2,-97.6 -52.9,-99.5 -1.4,-1.6 -2.5,-2.4 -4,-3.1 l -2.1,-1 z"/>
    </g>
</svg>
